<svg width="96" height="96" viewBox="0 0 480 480" fill="none" xmlns="http://www.w3.org/2000/svg">
<path d="M246.048 240.576C233.568 240.576 224.64 237.024 219.264 229.92C213.888 222.624 211.2 211.968 211.2 197.952C211.2 183.936 215.712 151.68 224.736 101.184H220.128C208.416 116.544 198.72 134.88 191.04 156.192C183.36 177.504 178.656 196.704 176.928 213.792C167.52 222.624 156.672 227.04 144.384 227.04C139.392 227.04 134.976 225.312 131.136 221.856C127.488 218.208 123.84 211.968 120.192 203.136C113.088 185.28 108 151.296 104.928 101.184H100.32C90.912 142.464 86.208 171.552 86.208 188.448C86.208 205.344 89.088 218.4 94.848 227.616C83.328 236.256 71.328 240.576 58.848 240.576C46.368 240.576 37.44 237.024 32.064 229.92C26.688 222.624 24 211.872 24 197.664C24 183.264 30.048 142.656 42.144 75.84L26.88 45.024C48.576 31.008 68.352 24 86.208 24C94.08 24 100.704 24.864 106.08 26.592C111.648 28.128 116.928 31.2 121.92 35.808C127.104 40.416 131.328 46.848 134.592 55.104C142.08 73.728 147.456 100.896 150.72 136.608H154.176C164.16 107.232 177.984 81.984 195.648 60.864C205.248 49.536 216.672 40.608 229.92 34.08C243.36 27.552 257.856 24.288 273.408 24.288C288.192 24.288 295.584 33.216 295.584 51.072C295.584 57.024 291.84 79.2 284.352 117.6C277.056 155.808 273.408 178.56 273.408 185.856C273.408 204.48 276.288 218.4 282.048 227.616C270.528 236.256 258.528 240.576 246.048 240.576Z" fill="#F5F5F5"/>
<path d="M297.84 455.488C285.552 455.488 276.72 451.936 271.344 444.832C265.968 437.536 263.28 426.784 263.28 412.576C263.28 398.176 269.328 357.568 281.424 290.752L266.16 259.936C287.856 245.92 307.632 238.912 325.488 238.912C337.392 238.912 344.496 244.672 346.8 256.192C366.576 244.864 385.968 239.2 404.976 239.2C417.456 239.2 428.4 242.08 437.808 247.84C448.944 254.56 454.512 266.176 454.512 282.688C454.512 309.952 439.44 329.728 409.296 342.016C440.016 347.392 455.376 364.576 455.376 393.568C455.376 412.384 447.6 427.36 432.048 438.496C416.496 449.632 399.024 455.2 379.632 455.2C360.432 455.2 344.976 451.168 333.264 443.104C321.936 451.36 310.128 455.488 297.84 455.488ZM388.848 387.232C388.848 378.208 386.16 371.584 380.784 367.36C375.6 363.136 368.592 361.024 359.76 361.024C350.928 361.024 341.04 362.848 330.096 366.496C327.024 382.816 325.488 396.736 325.488 408.256C334.896 412.672 344.688 414.88 354.864 414.88C365.04 414.88 373.2 412.48 379.344 407.68C385.68 402.88 388.848 396.064 388.848 387.232ZM370.128 277.216C362.64 277.216 354.576 278.656 345.936 281.536C344.784 289.024 341.232 308.224 335.28 339.136C351.216 337.984 364.752 334.144 375.888 327.616C387.024 320.896 392.592 311.296 392.592 298.816C392.592 284.416 385.104 277.216 370.128 277.216Z" fill="#F5F5F5"/>
</svg>
